<svg width="17" height="17" viewBox="0 0 17 17" fill="none" xmlns="http://www.w3.org/2000/svg">
<path d="M2.83337 2.83317V14.1665C2.83337 14.5422 2.98263 14.9026 3.24831 15.1682C3.51398 15.4339 3.87432 15.5832 4.25004 15.5832H12.75C13.1258 15.5832 13.4861 15.4339 13.7518 15.1682C14.0175 14.9026 14.1667 14.5422 14.1667 14.1665V5.90875C14.1667 5.72003 14.129 5.5332 14.0557 5.35926C13.9825 5.18532 13.8753 5.02776 13.7403 4.89584L10.5953 1.82025C10.3306 1.56147 9.9752 1.41655 9.60504 1.4165H4.25004C3.87432 1.4165 3.51398 1.56576 3.24831 1.83144C2.98263 2.09711 2.83337 2.45745 2.83337 2.83317Z" stroke="#242424" stroke-width="1.41667" stroke-linecap="round" stroke-linejoin="round"/>
<path d="M9.91675 1.4165V4.24984C9.91675 4.62556 10.066 4.9859 10.3317 5.25157C10.5974 5.51725 10.9577 5.6665 11.3334 5.6665H14.1667" stroke="#242424" stroke-width="1.41667" stroke-linejoin="round"/>
</svg>
