<svg width="17" height="17" viewBox="0 0 17 17" fill="none" xmlns="http://www.w3.org/2000/svg">
<path d="M8.5 1.0625L2.125 3.1875V9.5625C2.125 13.0837 4.97881 15.9375 8.5 15.9375C12.0212 15.9375 14.875 13.0837 14.875 9.5625V3.1875L8.5 1.0625ZM13.6797 9.5625C13.6797 12.4229 11.3604 14.7422 8.5 14.7422C5.63955 14.7422 3.32031 12.4229 3.32031 9.5625V4.08398L8.5 2.25781L13.6797 4.08398V9.5625Z" fill="#242424"/>
<path d="M6.28207 7.88728C6.22667 7.83163 6.16083 7.78748 6.08833 7.75735C6.01582 7.72722 5.93808 7.71171 5.85956 7.71171C5.78104 7.71171 5.7033 7.72722 5.63079 7.75735C5.55828 7.78748 5.49244 7.83163 5.43705 7.88728C5.3814 7.94267 5.33724 8.00852 5.30711 8.08102C5.27698 8.15353 5.26147 8.23127 5.26147 8.30979C5.26147 8.38831 5.27698 8.46605 5.30711 8.53856C5.33724 8.61107 5.3814 8.67691 5.43705 8.7323L7.58529 10.8805L7.62015 10.9154C7.67255 10.9679 7.73479 11.0095 7.8033 11.038C7.87181 11.0664 7.94525 11.081 8.01942 11.081C8.09359 11.081 8.16703 11.0664 8.23555 11.038C8.30406 11.0095 8.36629 10.9679 8.41869 10.9154L12.1291 7.20496C12.1816 7.15256 12.2233 7.09032 12.2517 7.02181C12.2801 6.9533 12.2947 6.87986 12.2947 6.80569C12.2947 6.73152 12.2801 6.65808 12.2517 6.58956C12.2233 6.52105 12.1816 6.45882 12.1291 6.40642L12.0827 6.35994C12.0303 6.30744 11.968 6.26579 11.8995 6.23738C11.831 6.20896 11.7576 6.19434 11.6834 6.19434C11.6092 6.19434 11.5358 6.20896 11.4673 6.23738C11.3988 6.26579 11.3365 6.30744 11.2841 6.35994L8.01859 9.6238L6.28207 7.88728Z" fill="#242424"/>
</svg>
