<svg width="16" height="15" viewBox="0 0 16 15" fill="none" xmlns="http://www.w3.org/2000/svg">
<g clip-path="url(#clip0_3652_6734)">
<path d="M1.51778 2.75684H0V12.243H1.51778V2.75684Z" fill="black"/>
<path d="M3.03561 2.75684H2.27673V12.243H3.03561V2.75684Z" fill="black"/>
<path d="M3.79443 2.75684V12.243H4.55334H5.31222V2.75684H4.55334H3.79443Z" fill="black"/>
<path d="M6.07117 2.75684V12.243H6.83004H7.58895V2.75684H6.83004H6.07117Z" fill="black"/>
<path d="M9.10668 2.75684H8.34778V12.243H9.10668V2.75684Z" fill="black"/>
<path d="M10.6245 2.75684H9.8656V12.243H10.6245H11.3834H12.1423V2.75684H11.3834H10.6245Z" fill="black"/>
<path d="M12.9012 2.75684V12.243H13.6601H14.4402V2.75684H13.6601H12.9012Z" fill="black"/>
<path d="M16 2.75684H15.2201V12.243H16V2.75684Z" fill="black"/>
</g>
<defs>
<clipPath id="clip0_3652_6734">
<rect width="16" height="15" fill="white"/>
</clipPath>
</defs>
</svg>
