<svg width="24" height="23" viewBox="0 0 24 23" fill="none" xmlns="http://www.w3.org/2000/svg">
<path d="M9 4.3125H6V1.4375H4.5V4.3125H1.5V5.75H4.5V8.625H6V5.75H9V4.3125Z" fill="#60AFD6"/>
<path d="M22.4393 11.9356L20.1893 6.90431C20.1314 6.77505 20.0353 6.66488 19.9128 6.58746C19.7903 6.51004 19.6468 6.46877 19.5 6.46875H17.25V5.03125C17.25 4.84063 17.171 4.65781 17.0303 4.52302C16.8897 4.38823 16.6989 4.3125 16.5 4.3125H11.25V5.75H15.75V14.7746C15.4085 14.9651 15.1095 15.2183 14.8704 15.5197C14.6313 15.8212 14.4566 16.1649 14.3565 16.5312H9.6435C9.48035 15.9144 9.10723 15.3673 8.58317 14.9765C8.05911 14.5857 7.41403 14.3735 6.75 14.3735C6.08597 14.3735 5.44089 14.5857 4.91683 14.9765C4.39277 15.3673 4.01965 15.9144 3.8565 16.5312H3V10.0625H1.5V17.25C1.5 17.4406 1.57902 17.6234 1.71967 17.7582C1.86032 17.893 2.05109 17.9688 2.25 17.9688H3.8565C4.01965 18.5856 4.39277 19.1327 4.91683 19.5235C5.44089 19.9143 6.08597 20.1265 6.75 20.1265C7.41403 20.1265 8.05911 19.9143 8.58317 19.5235C9.10723 19.1327 9.48035 18.5856 9.6435 17.9688H14.3565C14.5197 18.5856 14.8928 19.1327 15.4168 19.5235C15.9409 19.9143 16.586 20.1265 17.25 20.1265C17.914 20.1265 18.5591 19.9143 19.0832 19.5235C19.6072 19.1327 19.9803 18.5856 20.1435 17.9688H21.75C21.9489 17.9688 22.1397 17.893 22.2803 17.7582C22.421 17.6234 22.5 17.4406 22.5 17.25V12.2188C22.5 12.1214 22.4793 12.025 22.4393 11.9356ZM6.75 18.6875C6.45333 18.6875 6.16332 18.6032 5.91665 18.4452C5.66997 18.2873 5.47771 18.0628 5.36418 17.8001C5.25065 17.5374 5.22094 17.2484 5.27882 16.9696C5.3367 16.6907 5.47956 16.4346 5.68934 16.2335C5.89912 16.0325 6.16639 15.8956 6.45736 15.8401C6.74834 15.7847 7.04994 15.8131 7.32403 15.9219C7.59811 16.0307 7.83238 16.215 7.9972 16.4514C8.16203 16.6878 8.25 16.9657 8.25 17.25C8.2494 17.6311 8.09118 17.9964 7.81 18.2658C7.52883 18.5353 7.14764 18.6869 6.75 18.6875ZM17.25 7.90625H19.005L20.613 11.5H17.25V7.90625ZM17.25 18.6875C16.9533 18.6875 16.6633 18.6032 16.4166 18.4452C16.17 18.2873 15.9777 18.0628 15.8642 17.8001C15.7506 17.5374 15.7209 17.2484 15.7788 16.9696C15.8367 16.6907 15.9796 16.4346 16.1893 16.2335C16.3991 16.0325 16.6664 15.8956 16.9574 15.8401C17.2483 15.7847 17.5499 15.8131 17.824 15.9219C18.0981 16.0307 18.3324 16.215 18.4972 16.4514C18.662 16.6878 18.75 16.9657 18.75 17.25C18.75 17.6312 18.592 17.9969 18.3107 18.2665C18.0294 18.536 17.6478 18.6875 17.25 18.6875ZM21 16.5312H20.1435C19.9783 15.9156 19.6046 15.3699 19.0809 14.9797C18.5573 14.5894 17.9133 14.3768 17.25 14.375V12.9375H21V16.5312Z" fill="#60AFD6"/>
</svg>
