<svg width="24" height="23" viewBox="0 0 24 23" fill="none" xmlns="http://www.w3.org/2000/svg">
<path d="M9 4.3125H6V1.4375H4.5V4.3125H1.5V5.75H4.5V8.625H6V5.75H9V4.3125Z" fill="#4640FF"/>
<path d="M22.4393 11.9356L20.1893 6.90431C20.1314 6.77505 20.0353 6.66488 19.9128 6.58746C19.7903 6.51004 19.6468 6.46877 19.5 6.46875H17.75C17.4739 6.46875 17.25 6.24489 17.25 5.96875V5.03125C17.25 4.84063 17.171 4.65781 17.0303 4.52302C16.8897 4.38823 16.6989 4.3125 16.5 4.3125H11.75C11.4739 4.3125 11.25 4.53636 11.25 4.8125V5.25C11.25 5.52614 11.4739 5.75 11.75 5.75H15.25C15.5261 5.75 15.75 5.97386 15.75 6.25V14.4809C15.75 14.6622 15.6499 14.8266 15.5008 14.9299C15.262 15.0954 15.0494 15.294 14.8704 15.5197C14.7114 15.7201 14.581 15.9391 14.482 16.1711C14.3935 16.3784 14.2002 16.5312 13.9748 16.5312H10.0284C9.80155 16.5312 9.60736 16.3763 9.51959 16.1671C9.32364 15.7 9.00149 15.2884 8.58317 14.9765C8.05911 14.5857 7.41403 14.3735 6.75 14.3735C6.08597 14.3735 5.44089 14.5857 4.91683 14.9765C4.4951 15.291 4.17112 15.7067 3.97565 16.1785C3.8916 16.3814 3.70354 16.5312 3.48393 16.5312C3.21666 16.5312 3 16.3146 3 16.0473V10.5625C3 10.2864 2.77614 10.0625 2.5 10.0625H2C1.72386 10.0625 1.5 10.2864 1.5 10.5625V17.25C1.5 17.4406 1.57902 17.6234 1.71967 17.7582C1.86032 17.893 2.05109 17.9688 2.25 17.9688H3.47155C3.69845 17.9688 3.89264 18.1237 3.98041 18.3329C4.17636 18.8 4.49851 19.2116 4.91683 19.5235C5.44089 19.9143 6.08597 20.1265 6.75 20.1265C7.41403 20.1265 8.05911 19.9143 8.58317 19.5235C9.00149 19.2116 9.32364 18.8 9.51959 18.3329C9.60736 18.1237 9.80155 17.9688 10.0284 17.9688H13.9716C14.1985 17.9688 14.3926 18.1237 14.4804 18.3329C14.6764 18.8 14.9985 19.2116 15.4168 19.5235C15.9409 19.9143 16.586 20.1265 17.25 20.1265C17.914 20.1265 18.5591 19.9143 19.0832 19.5235C19.5015 19.2116 19.8236 18.8 20.0196 18.3329C20.1074 18.1237 20.3015 17.9688 20.5285 17.9688H21.75C21.9489 17.9688 22.1397 17.893 22.2803 17.7582C22.421 17.6234 22.5 17.4406 22.5 17.25V12.2188C22.5 12.1214 22.4793 12.025 22.4393 11.9356ZM6.75 18.6875C6.45333 18.6875 6.16332 18.6032 5.91665 18.4452C5.66997 18.2873 5.47771 18.0628 5.36418 17.8001C5.25065 17.5374 5.22094 17.2484 5.27882 16.9696C5.3367 16.6907 5.47956 16.4346 5.68934 16.2335C5.89912 16.0325 6.16639 15.8956 6.45736 15.8401C6.74834 15.7847 7.04994 15.8131 7.32403 15.9219C7.59811 16.0307 7.83238 16.215 7.9972 16.4514C8.16203 16.6878 8.25 16.9657 8.25 17.25C8.2494 17.6311 8.09118 17.9964 7.81 18.2658C7.52883 18.5353 7.14764 18.6869 6.75 18.6875ZM17.25 8.40625C17.25 8.13011 17.4739 7.90625 17.75 7.90625H18.681C18.8781 7.90625 19.0568 8.02209 19.1373 8.20204L20.2979 10.7958C20.4459 11.1266 20.2039 11.5 19.8415 11.5H17.75C17.4739 11.5 17.25 11.2761 17.25 11V8.40625ZM17.25 18.6875C16.9533 18.6875 16.6633 18.6032 16.4166 18.4452C16.17 18.2873 15.9777 18.0628 15.8642 17.8001C15.7506 17.5374 15.7209 17.2484 15.7788 16.9696C15.8367 16.6907 15.9796 16.4346 16.1893 16.2335C16.3991 16.0325 16.6664 15.8956 16.9574 15.8401C17.2483 15.7847 17.5499 15.8131 17.824 15.9219C18.0981 16.0307 18.3324 16.215 18.4972 16.4514C18.662 16.6878 18.75 16.9657 18.75 17.25C18.75 17.6312 18.592 17.9969 18.3107 18.2665C18.0294 18.536 17.6478 18.6875 17.25 18.6875ZM21 16.0465C21 16.3142 20.783 16.5312 20.5153 16.5312C20.296 16.5312 20.108 16.382 20.0235 16.1796C19.8268 15.7086 19.5024 15.2938 19.0809 14.9797C18.6893 14.6878 18.2304 14.4953 17.7465 14.416C17.4745 14.3715 17.25 14.152 17.25 13.8763V13.4375C17.25 13.1614 17.4739 12.9375 17.75 12.9375H20.5C20.7761 12.9375 21 13.1614 21 13.4375V16.0465Z" fill="#4640FF"/>
</svg>
