<svg width="17" height="17" viewBox="0 0 17 17" fill="none" xmlns="http://www.w3.org/2000/svg">
<path d="M6.375 3.1875H4.25V1.0625H3.1875V3.1875H1.0625V4.25H3.1875V6.375H4.25V4.25H6.375V3.1875Z" fill="#242424"/>
<path d="M15.8945 8.82194L14.3007 5.10319C14.2598 5.00765 14.1917 4.92622 14.1049 4.86899C14.0181 4.81177 13.9165 4.78126 13.8125 4.78125H12.2188V3.71875C12.2188 3.57785 12.1628 3.44273 12.0632 3.3431C11.9635 3.24347 11.8284 3.1875 11.6875 3.1875H7.96875V4.25H11.1562V10.9204C10.9143 11.0611 10.7026 11.2483 10.5332 11.4711C10.3638 11.6939 10.2401 11.948 10.1692 12.2188H6.83081C6.71525 11.7628 6.45095 11.3584 6.07974 11.0696C5.70854 10.7807 5.25161 10.6239 4.78125 10.6239C4.31089 10.6239 3.85396 10.7807 3.48276 11.0696C3.11155 11.3584 2.84725 11.7628 2.73169 12.2188H2.125V7.4375H1.0625V12.75C1.0625 12.8909 1.11847 13.026 1.2181 13.1257C1.31773 13.2253 1.45285 13.2812 1.59375 13.2812H2.73169C2.84725 13.7372 3.11155 14.1416 3.48276 14.4304C3.85396 14.7193 4.31089 14.8761 4.78125 14.8761C5.25161 14.8761 5.70854 14.7193 6.07974 14.4304C6.45095 14.1416 6.71525 13.7372 6.83081 13.2812H10.1692C10.2848 13.7372 10.549 14.1416 10.9203 14.4304C11.2915 14.7193 11.7484 14.8761 12.2188 14.8761C12.6891 14.8761 13.146 14.7193 13.5172 14.4304C13.8885 14.1416 14.1527 13.7372 14.2683 13.2812H15.4062C15.5471 13.2812 15.6823 13.2253 15.7819 13.1257C15.8815 13.026 15.9375 12.8909 15.9375 12.75V9.03125C15.9375 8.95928 15.9228 8.88807 15.8945 8.82194ZM4.78125 13.8125C4.57111 13.8125 4.36568 13.7502 4.19096 13.6334C4.01623 13.5167 3.88005 13.3507 3.79963 13.1566C3.71921 12.9625 3.69817 12.7488 3.73917 12.5427C3.78016 12.3366 3.88136 12.1473 4.02995 11.9987C4.17854 11.8501 4.36786 11.7489 4.57397 11.7079C4.78007 11.6669 4.9937 11.688 5.18785 11.7684C5.382 11.8488 5.54794 11.985 5.66469 12.1597C5.78144 12.3344 5.84375 12.5399 5.84375 12.75C5.84333 13.0317 5.73125 13.3017 5.53208 13.5008C5.33292 13.7 5.06291 13.8121 4.78125 13.8125ZM12.2188 5.84375H13.4619L14.6009 8.5H12.2188V5.84375ZM12.2188 13.8125C12.0086 13.8125 11.8032 13.7502 11.6285 13.6334C11.4537 13.5167 11.3175 13.3507 11.2371 13.1566C11.1567 12.9625 11.1357 12.7488 11.1767 12.5427C11.2177 12.3366 11.3189 12.1473 11.4674 11.9987C11.616 11.8501 11.8054 11.7489 12.0115 11.7079C12.2176 11.6669 12.4312 11.688 12.6254 11.7684C12.8195 11.8488 12.9854 11.985 13.1022 12.1597C13.2189 12.3344 13.2812 12.5399 13.2812 12.75C13.2812 13.0318 13.1693 13.302 12.9701 13.5013C12.7708 13.7006 12.5005 13.8125 12.2188 13.8125ZM14.875 12.2188H14.2683C14.1513 11.7637 13.8866 11.3603 13.5157 11.0719C13.1447 10.7835 12.6886 10.6263 12.2188 10.625V9.5625H14.875V12.2188Z" fill="#242424"/>
</svg>
