<svg width="24" height="24" viewBox="0 0 24 24" fill="none" xmlns="http://www.w3.org/2000/svg">
<g clip-path="url(#clip0_3665_3827)">
<path d="M21.8999 18.7533L21.6732 18.5534C21.0303 17.9802 20.4675 17.3232 19.9999 16.6C19.4888 15.6019 19.1828 14.5116 19.0999 13.3934V10.1C19.1043 8.34376 18.4672 6.64633 17.3084 5.32666C16.1495 4.007 14.5486 3.15592 12.8065 2.93335V2.07335C12.8065 1.83731 12.7128 1.61093 12.5459 1.44402C12.379 1.27712 12.1526 1.18335 11.9165 1.18335C11.6805 1.18335 11.4541 1.27712 11.2872 1.44402C11.1203 1.61093 11.0265 1.83731 11.0265 2.07335V2.94668C9.30004 3.1853 7.71852 4.04152 6.57489 5.35675C5.43126 6.67199 4.80302 8.35711 4.80654 10.1V13.3934C4.72357 14.5116 4.41756 15.6019 3.90654 16.6C3.44712 17.3216 2.89333 17.9785 2.25987 18.5534L2.0332 18.7533V20.6334H21.8999V18.7533Z" fill="#86827F"/>
<path d="M10.2134 21.3334C10.2718 21.756 10.4812 22.1431 10.8029 22.4233C11.1246 22.7036 11.5368 22.8579 11.9634 22.8579C12.39 22.8579 12.8022 22.7036 13.1239 22.4233C13.4455 22.1431 13.6549 21.756 13.7134 21.3334H10.2134Z" fill="#86827F"/>
</g>
<defs>
<clipPath id="clip0_3665_3827">
<rect width="24" height="24" fill="white"/>
</clipPath>
</defs>
</svg>
