<svg width="9" height="14" viewBox="0 0 9 14" fill="none" xmlns="http://www.w3.org/2000/svg">
<path d="M4 14V12.8619C1.51656 12.7188 0.0078125 11.4394 0 9.5H2.25C2.30531 10.3231 2.99563 10.9516 4 11.0625V8L3.16344 7.78125C1.25719 7.33813 0.237187 6.23781 0.237187 4.59125C0.237187 2.65031 1.6275 1.3775 4 1.1875V0H5V1.1875C7.41844 1.38437 8.71875 2.67938 8.75 4.5H6.5C6.47625 3.74813 6.00531 3.14406 5 3.0625V5.9375L5.96313 6.165C7.98781 6.60812 9 7.65625 9 9.375C9 11.3856 7.63313 12.6838 5 12.8538V14H4ZM4 5.75V3.0625C3.13781 3.11 2.52281 3.63969 2.52281 4.39156C2.52281 5.08844 3.035 5.54406 4 5.75ZM5 8.1875V11.0625C6.19219 11.0144 6.76188 10.4713 6.76188 9.63219C6.76188 8.86406 6.19219 8.34688 5 8.1875Z" fill="#FF0004"/>
</svg>
