<svg width="22" height="22" viewBox="0 0 22 22" fill="none" xmlns="http://www.w3.org/2000/svg">
<g clip-path="url(#clip0_3304_7590)">
<path d="M22 14.7812C22 16.8695 20.8405 18.5625 18.5625 18.5625H3.4375C1.15947 18.5625 0 16.8695 0 14.7812V7.21875C0 5.13047 1.15947 3.4375 3.4375 3.4375H18.5625C20.8405 3.4375 22 5.13047 22 7.21875V14.7812Z" fill="#EC1C24"/>
<path d="M4.45883 5.72549L5.19411 7.21874L6.84239 7.45764L5.65061 8.6178L5.93145 10.2609L4.45883 9.48577L2.98586 10.2609L3.26704 8.6178L2.07629 7.45764L3.72183 7.21874L4.45883 5.72549ZM7.04933 4.46667L7.25317 4.88089L7.71173 4.94724L7.3807 5.27002L7.45804 5.72549L7.04933 5.5103L6.64095 5.72549L6.71829 5.27002L6.38761 4.94724L6.84514 4.88089L7.04933 4.46667ZM8.37311 5.95649L8.57729 6.37036L9.0338 6.43705L8.70414 6.76052L8.78183 7.2153L8.37311 7.00046L7.96473 7.2153L8.04208 6.76052L7.71173 6.43705L8.16858 6.37036L8.37311 5.95649ZM8.37311 8.34761L8.57729 8.76252L9.0338 8.82886L8.70414 9.15164L8.78183 9.60711L8.37311 9.39261L7.96473 9.60711L8.04208 9.15164L7.71173 8.82886L8.16858 8.76252L8.37311 8.34761ZM7.04933 10.0272L7.25317 10.4414L7.71173 10.5074L7.3807 10.8298L7.45804 11.286L7.04933 11.0722L6.64095 11.286L6.71829 10.8298L6.38761 10.5074L6.84514 10.4414L7.04933 10.0272Z" fill="#F9CB38"/>
</g>
<defs>
<clipPath id="clip0_3304_7590">
<rect width="22" height="22" fill="white"/>
</clipPath>
</defs>
</svg>
