<svg width="24" height="24" viewBox="0 0 24 24" fill="none" xmlns="http://www.w3.org/2000/svg">
<path d="M12 0.775513C18.1992 0.775513 23.2245 5.80081 23.2245 12C23.2245 18.1992 18.1992 23.2245 12 23.2245C5.80081 23.2245 0.775513 18.1992 0.775513 12C0.775513 5.80081 5.80081 0.775513 12 0.775513ZM12 2.64626C6.83393 2.64626 2.64626 6.83393 2.64626 12C2.64626 17.1661 6.83393 21.3537 12 21.3537C17.1661 21.3537 21.3537 17.1661 21.3537 12C21.3537 6.83393 17.1661 2.64626 12 2.64626ZM12.268 5.58614V6.84282C14.1275 6.99201 15.474 8.10744 15.5334 9.79579H13.9863C13.8895 8.85855 13.2202 8.31556 12.268 8.19677V11.2985L12.6253 11.3873C14.5816 11.8415 15.6526 12.6449 15.6526 14.229C15.6526 16.0516 14.1649 17.0852 12.268 17.2194V18.4686H11.4276V17.2194C9.5381 17.0777 8.04337 16.0142 7.99146 14.229H9.53108C9.66484 15.0994 10.2303 15.7392 11.4276 15.8659V12.622L11.1226 12.5472C9.23317 12.109 8.21454 11.2611 8.21454 9.75089C8.21454 8.08453 9.55306 6.98406 11.4276 6.84235V5.58567L12.268 5.58614ZM12.268 12.8156V15.8729C13.5401 15.7761 14.0756 15.1737 14.0756 14.3777C14.0756 13.6117 13.6594 13.158 12.268 12.8156ZM11.4276 8.19677C10.3565 8.33053 9.79112 8.94788 9.79112 9.62509C9.79112 10.3023 10.2378 10.7999 11.428 11.0978L11.4276 8.19677Z" fill="#60D669"/>
</svg>
