<svg width="20" height="20" viewBox="0 0 20 20" fill="none" xmlns="http://www.w3.org/2000/svg">
<rect width="20" height="20" fill="white"/>
<path d="M12.5514 12.4216C12.5028 12.4216 12.4538 12.4134 12.4062 12.3963C12.2356 12.335 12.1218 12.1732 12.1218 11.992V8.77496L4.04928 4.11492C3.84377 3.99625 3.77334 3.73348 3.89197 3.52797C4.0106 3.32246 4.27334 3.25207 4.47892 3.37066L12.7664 8.15472C12.8994 8.23148 12.9813 8.37336 12.9813 8.52687V10.796L13.8893 9.69551C13.9918 9.57121 14.1553 9.5148 14.3127 9.54922L15.121 9.72637V7.04347L7.04353 2.38285C6.83799 2.26426 6.76752 2.00148 6.88611 1.79594C7.00471 1.59039 7.26748 1.51992 7.47303 1.63851L15.7654 6.42312C15.8984 6.49988 15.9803 6.64176 15.9803 6.79531V10.2604C15.9803 10.3905 15.9213 10.5136 15.82 10.5952C15.7186 10.6768 15.5857 10.708 15.4587 10.6802L14.3851 10.4449L12.883 12.2654C12.7997 12.3662 12.6773 12.4216 12.5514 12.4216Z" fill="#9D00FF"/>
<path d="M18.6871 5.05605C18.6859 5.05304 18.6848 5.04995 18.6835 5.04698C18.6812 5.04167 18.6784 5.03651 18.6758 5.03124C18.639 4.95362 18.58 4.88706 18.503 4.84265L10.2148 0.0575684C10.0819 -0.0191895 9.91808 -0.0191895 9.78515 0.0575684L1.55745 4.8078C1.46792 4.84163 1.38905 4.9053 1.33749 4.9946C1.29093 5.07519 1.27386 5.16452 1.28218 5.25058V14.7851C1.28218 14.9387 1.36409 15.0805 1.49702 15.1573L9.78519 19.9424C9.91815 20.0192 10.0819 20.0192 10.2149 19.9424L18.503 15.1573C18.636 15.0805 18.7179 14.9386 18.7179 14.7851V5.26042C18.7243 5.1923 18.7146 5.12226 18.6871 5.05605ZM9.99999 0.92585L17.4341 5.21792L10.0003 9.50382L2.57433 5.21304L9.99999 0.92585ZM2.14151 5.95546L9.5703 10.2479V18.8261L2.14151 14.5371V5.95546ZM10.4297 18.8261V10.2482L17.8585 5.96523V14.5371L10.4297 18.8261Z" fill="#7E7878"/>
<path d="M5.00024 15.1685C4.92734 15.1685 4.85348 15.1499 4.78578 15.1108L3.01008 14.0856C2.80457 13.967 2.73414 13.7042 2.85281 13.4987C2.97149 13.2932 3.2343 13.2228 3.43977 13.3414L5.21547 14.3666C5.42098 14.4853 5.49141 14.7481 5.37274 14.9536C5.29317 15.0914 5.14875 15.1685 5.00024 15.1685Z" fill="#9D00FF"/>
<path d="M4.2013 12.9564C4.12841 12.9564 4.05454 12.9378 3.98685 12.8987L3.01032 12.3349C2.80482 12.2163 2.73439 11.9535 2.85306 11.748C2.97173 11.5425 3.23454 11.4721 3.44001 11.5907L4.41653 12.1545C4.62204 12.2732 4.69247 12.5359 4.5738 12.7415C4.49423 12.8793 4.34978 12.9564 4.2013 12.9564Z" fill="#9D00FF"/>
</svg>
