<svg width="23" height="23" viewBox="0 0 23 23" fill="none" xmlns="http://www.w3.org/2000/svg">
<g clip-path="url(#clip0_3304_7596)">
<path d="M2.875 2C2.875 0.89543 3.77043 0 4.875 0H18.125C19.2296 0 20.125 0.895431 20.125 2V21C20.125 22.1046 19.2296 23 18.125 23H4.875C3.77043 23 2.875 22.1046 2.875 21V2ZM16.6875 21.5625C17.7921 21.5625 18.6875 20.6671 18.6875 19.5625V3.4375C18.6875 2.33293 17.7921 1.4375 16.6875 1.4375H6.3125C5.20793 1.4375 4.3125 2.33293 4.3125 3.4375V19.5625C4.3125 20.6671 5.20793 21.5625 6.3125 21.5625H16.6875ZM16.5312 5.75C16.9282 5.75 17.25 6.0718 17.25 6.46875C17.25 6.8657 16.9282 7.1875 16.5312 7.1875H12.2188C11.8218 7.1875 11.5 6.8657 11.5 6.46875C11.5 6.0718 11.8218 5.75 12.2188 5.75H16.5312ZM16.5312 11.5C16.9282 11.5 17.25 11.8218 17.25 12.2188C17.25 12.6157 16.9282 12.9375 16.5312 12.9375H12.2188C11.8218 12.9375 11.5 12.6157 11.5 12.2188C11.5 11.8218 11.8218 11.5 12.2188 11.5H16.5312ZM16.5312 17.25C16.9282 17.25 17.25 17.5718 17.25 17.9688C17.25 18.3657 16.9282 18.6875 16.5312 18.6875H12.2188C11.8218 18.6875 11.5 18.3657 11.5 17.9688C11.5 17.5718 11.8218 17.25 12.2188 17.25H16.5312ZM10.0625 4.3125C10.3416 4.59161 10.3416 5.04413 10.0625 5.32324L8.87769 6.50806C8.34118 7.04457 7.47132 7.04457 6.93481 6.50806L6.46875 6.04199C6.18964 5.76288 6.18964 5.31036 6.46875 5.03125L6.50806 4.99194C6.76546 4.73454 7.18279 4.73454 7.44019 4.99194C7.69759 5.24934 8.11491 5.24934 8.37231 4.99194L9.05176 4.3125C9.33087 4.03339 9.78339 4.03339 10.0625 4.3125ZM10.0625 10.0625C10.3416 10.3416 10.3416 10.7941 10.0625 11.0732L8.87769 12.2581C8.34118 12.7946 7.47132 12.7946 6.93481 12.2581L6.46875 11.792C6.18964 11.5129 6.18964 11.0604 6.46875 10.7812L6.50806 10.7419C6.76546 10.4845 7.18279 10.4845 7.44019 10.7419C7.69759 10.9993 8.11491 10.9993 8.37231 10.7419L9.05176 10.0625C9.33087 9.78339 9.78339 9.78339 10.0625 10.0625ZM10.0625 15.8125C10.3416 16.0916 10.3416 16.5441 10.0625 16.8232L8.87769 18.0081C8.34118 18.5446 7.47132 18.5446 6.93481 18.0081L6.46875 17.542C6.18964 17.2629 6.18964 16.8104 6.46875 16.5312L6.50806 16.4919C6.76546 16.2345 7.18279 16.2345 7.44019 16.4919C7.69759 16.7493 8.11491 16.7493 8.37231 16.4919L9.05176 15.8125C9.33087 15.5334 9.78339 15.5334 10.0625 15.8125Z" fill="#FFAE43"/>
</g>
<defs>
<clipPath id="clip0_3304_7596">
<rect width="23" height="23" fill="white"/>
</clipPath>
</defs>
</svg>
