<svg width="18" height="20" viewBox="0 0 18 20" fill="none" xmlns="http://www.w3.org/2000/svg">
<path d="M11.2713 12.4218C11.2227 12.4218 11.1736 12.4135 11.1261 12.3964C10.9555 12.3352 10.8417 12.1734 10.8417 11.9921V8.77508L2.76912 4.11504C2.56362 3.99637 2.49319 3.7336 2.61182 3.52809C2.73045 3.32258 2.99319 3.25219 3.19877 3.37078L11.4862 8.15485C11.6192 8.2316 11.7011 8.37348 11.7011 8.527V10.7961L12.6091 9.69563C12.7117 9.57133 12.8751 9.51493 13.0326 9.54934L13.8409 9.72649V7.0436L5.76338 2.38297C5.55783 2.26438 5.48737 2.00161 5.60596 1.79606C5.72455 1.59051 5.98733 1.52004 6.19287 1.63864L14.4852 6.42325C14.6182 6.5 14.7001 6.64188 14.7001 6.79543V10.2606C14.7001 10.3907 14.6412 10.5138 14.5398 10.5953C14.4385 10.6769 14.3055 10.7081 14.1785 10.6803L13.1049 10.445L11.6028 12.2656C11.5196 12.3664 11.3971 12.4218 11.2713 12.4218Z" fill="#9D00FF"/>
<path d="M17.4069 5.05605C17.4057 5.05304 17.4046 5.04995 17.4034 5.04698C17.4011 5.04167 17.3982 5.03651 17.3956 5.03124C17.3589 4.95362 17.2998 4.88706 17.2229 4.84265L8.93468 0.0575684C8.80175 -0.0191895 8.63793 -0.0191895 8.505 0.0575684L0.277301 4.8078C0.187769 4.84163 0.108902 4.9053 0.0573397 4.9946C0.0107772 5.07519 -0.00629313 5.16452 0.00202718 5.25058V14.7851C0.00202718 14.9387 0.0839413 15.0805 0.216871 15.1573L8.50504 19.9424C8.638 20.0192 8.80175 20.0192 8.93472 19.9424L17.2229 15.1573C17.3558 15.0805 17.4377 14.9386 17.4377 14.7851V5.26042C17.4442 5.1923 17.4344 5.12226 17.4069 5.05605ZM8.71984 0.92585L16.154 5.21792L8.72011 9.50382L1.29418 5.21304L8.71984 0.92585ZM0.861363 5.95546L8.29015 10.2479V18.8261L0.861363 14.5371V5.95546ZM9.14953 18.8261V10.2482L16.5784 5.96523V14.5371L9.14953 18.8261Z" fill="#7E7878"/>
<path d="M3.72008 15.1684C3.64719 15.1684 3.57333 15.1498 3.50563 15.1107L1.72993 14.0855C1.52442 13.9669 1.45399 13.7041 1.57266 13.4986C1.69133 13.2931 1.95415 13.2227 2.15962 13.3413L3.93532 14.3665C4.14083 14.4852 4.21126 14.7479 4.09258 14.9535C4.01301 15.0913 3.8686 15.1684 3.72008 15.1684Z" fill="#9D00FF"/>
<path d="M2.92115 12.9565C2.84826 12.9565 2.77439 12.9379 2.7067 12.8988L1.73017 12.3351C1.52466 12.2164 1.45423 11.9536 1.57291 11.7481C1.69158 11.5426 1.95439 11.4722 2.15986 11.5908L3.13638 12.1546C3.34189 12.2733 3.41232 12.5361 3.29365 12.7416C3.21408 12.8794 3.06962 12.9565 2.92115 12.9565Z" fill="#9D00FF"/>
</svg>
