<svg width="40" height="40" viewBox="0 0 40 40" fill="none" xmlns="http://www.w3.org/2000/svg">
<g clip-path="url(#clip0_3696_5399)">
<path d="M30 13.75V26.25H11.25V23.75H10V12.5H27.5V13.75H30ZM25 13.75C25 13.9258 25.0326 14.0885 25.0977 14.2383C25.1628 14.388 25.2507 14.5182 25.3613 14.6289C25.472 14.7396 25.6055 14.8307 25.7617 14.9023C25.918 14.974 26.0807 15.0065 26.25 15V13.75H25ZM11.25 15C11.4258 15 11.5885 14.9674 11.7383 14.9023C11.888 14.8372 12.0182 14.7493 12.1289 14.6387C12.2396 14.528 12.3307 14.3945 12.4023 14.2383C12.474 14.082 12.5065 13.9193 12.5 13.75H11.25V15ZM11.25 20C11.5951 20 11.9173 20.0651 12.2168 20.1953C12.5163 20.3255 12.7832 20.5046 13.0176 20.7324C13.252 20.9603 13.431 21.224 13.5547 21.5234C13.6784 21.8229 13.7435 22.1484 13.75 22.5H23.75C23.75 22.1549 23.8151 21.8327 23.9453 21.5332C24.0755 21.2337 24.2546 20.9668 24.4824 20.7324C24.7103 20.498 24.974 20.319 25.2734 20.1953C25.5729 20.0716 25.8984 20.0065 26.25 20V16.25C25.9049 16.25 25.5827 16.1849 25.2832 16.0547C24.9837 15.9245 24.7168 15.7454 24.4824 15.5176C24.248 15.2897 24.069 15.026 23.9453 14.7266C23.8216 14.4271 23.7565 14.1016 23.75 13.75H13.75C13.75 14.0951 13.6849 14.4173 13.5547 14.7168C13.4245 15.0163 13.2454 15.2832 13.0176 15.5176C12.7897 15.752 12.526 15.931 12.2266 16.0547C11.9271 16.1784 11.6016 16.2435 11.25 16.25V20ZM26.25 21.25C26.0742 21.25 25.9115 21.2826 25.7617 21.3477C25.612 21.4128 25.4818 21.5007 25.3711 21.6113C25.2604 21.722 25.1693 21.8555 25.0977 22.0117C25.026 22.168 24.9935 22.3307 25 22.5H26.25V21.25ZM11.25 22.5H12.5C12.5 22.3242 12.4674 22.1615 12.4023 22.0117C12.3372 21.862 12.2493 21.7318 12.1387 21.6211C12.028 21.5104 11.8945 21.4193 11.7383 21.3477C11.582 21.276 11.4193 21.2435 11.25 21.25V22.5ZM28.75 15H27.5V23.75H12.5V25H28.75V15ZM14.375 18.75C14.2057 18.75 14.0592 18.6882 13.9355 18.5645C13.8118 18.4408 13.75 18.2943 13.75 18.125C13.75 17.9557 13.8118 17.8092 13.9355 17.6855C14.0592 17.5618 14.2057 17.5 14.375 17.5C14.5443 17.5 14.6908 17.5618 14.8145 17.6855C14.9382 17.8092 15 17.9557 15 18.125C15 18.2943 14.9382 18.4408 14.8145 18.5645C14.6908 18.6882 14.5443 18.75 14.375 18.75ZM23.125 18.75C22.9557 18.75 22.8092 18.6882 22.6855 18.5645C22.5618 18.4408 22.5 18.2943 22.5 18.125C22.5 17.9557 22.5618 17.8092 22.6855 17.6855C22.8092 17.5618 22.9557 17.5 23.125 17.5C23.2943 17.5 23.4408 17.5618 23.5645 17.6855C23.6882 17.8092 23.75 17.9557 23.75 18.125C23.75 18.2943 23.6882 18.4408 23.5645 18.5645C23.4408 18.6882 23.2943 18.75 23.125 18.75ZM18.75 21.25C18.4049 21.25 18.0827 21.1849 17.7832 21.0547C17.4837 20.9245 17.2168 20.7454 16.9824 20.5176C16.748 20.2897 16.569 20.026 16.4453 19.7266C16.3216 19.4271 16.2565 19.1016 16.25 18.75V17.5C16.25 17.1549 16.3151 16.8327 16.4453 16.5332C16.5755 16.2337 16.7546 15.9668 16.9824 15.7324C17.2103 15.498 17.474 15.319 17.7734 15.1953C18.0729 15.0716 18.3984 15.0065 18.75 15C19.0951 15 19.4173 15.0651 19.7168 15.1953C20.0163 15.3255 20.2832 15.5046 20.5176 15.7324C20.752 15.9603 20.931 16.224 21.0547 16.5234C21.1784 16.8229 21.2435 17.1484 21.25 17.5V18.75C21.25 19.0951 21.1849 19.4173 21.0547 19.7168C20.9245 20.0163 20.7454 20.2832 20.5176 20.5176C20.2897 20.752 20.026 20.931 19.7266 21.0547C19.4271 21.1784 19.1016 21.2435 18.75 21.25ZM17.5 18.75C17.5 18.9258 17.5326 19.0885 17.5977 19.2383C17.6628 19.388 17.7507 19.5182 17.8613 19.6289C17.972 19.7396 18.1055 19.8307 18.2617 19.9023C18.418 19.974 18.5807 20.0065 18.75 20C18.9258 20 19.0885 19.9674 19.2383 19.9023C19.388 19.8372 19.5182 19.7493 19.6289 19.6387C19.7396 19.528 19.8307 19.3945 19.9023 19.2383C19.974 19.082 20.0065 18.9193 20 18.75V17.5C20 17.3242 19.9674 17.1615 19.9023 17.0117C19.8372 16.862 19.7493 16.7318 19.6387 16.6211C19.528 16.5104 19.3945 16.4193 19.2383 16.3477C19.082 16.276 18.9193 16.2435 18.75 16.25C18.5742 16.25 18.4115 16.2826 18.2617 16.3477C18.112 16.4128 17.9818 16.5007 17.8711 16.6113C17.7604 16.722 17.6693 16.8555 17.5977 17.0117C17.526 17.168 17.4935 17.3307 17.5 17.5V18.75Z" fill="#7E7878"/>
</g>
<defs>
<clipPath id="clip0_3696_5399">
<rect width="20" height="20" fill="white" transform="translate(10 10)"/>
</clipPath>
</defs>
</svg>
