<svg width="17" height="17" viewBox="0 0 17 17" fill="none" xmlns="http://www.w3.org/2000/svg">
<path d="M8.49996 4.604C8.96961 4.604 9.42003 4.79057 9.75213 5.12267C10.0842 5.45476 10.2708 5.90518 10.2708 6.37484C10.2708 6.60739 10.225 6.83766 10.136 7.05251C10.047 7.26735 9.91656 7.46257 9.75213 7.62701C9.58769 7.79144 9.39248 7.92188 9.17763 8.01087C8.96278 8.09987 8.73251 8.14567 8.49996 8.14567C8.0303 8.14567 7.57989 7.9591 7.24779 7.62701C6.9157 7.29491 6.72913 6.84449 6.72913 6.37484C6.72913 5.90518 6.9157 5.45476 7.24779 5.12267C7.57989 4.79057 8.0303 4.604 8.49996 4.604ZM8.49996 1.4165C9.81499 1.4165 11.0762 1.9389 12.006 2.86877C12.9359 3.79863 13.4583 5.05981 13.4583 6.37484C13.4583 10.0936 8.49996 15.5832 8.49996 15.5832C8.49996 15.5832 3.54163 10.0936 3.54163 6.37484C3.54163 5.05981 4.06402 3.79863 4.99389 2.86877C5.92376 1.9389 7.18493 1.4165 8.49996 1.4165ZM8.49996 2.83317C7.56065 2.83317 6.65981 3.20631 5.99562 3.8705C5.33143 4.53469 4.95829 5.43553 4.95829 6.37484C4.95829 7.08317 4.95829 8.49984 8.49996 13.2528C12.0416 8.49984 12.0416 7.08317 12.0416 6.37484C12.0416 5.43553 11.6685 4.53469 11.0043 3.8705C10.3401 3.20631 9.43927 2.83317 8.49996 2.83317Z" fill="#242424"/>
</svg>
