<svg width="20" height="20" viewBox="0 0 20 20" fill="none" xmlns="http://www.w3.org/2000/svg">
<path d="M9.99996 1.66663C14.6025 1.66663 18.3333 5.39746 18.3333 9.99996C18.3333 14.6025 14.6025 18.3333 9.99996 18.3333C5.39746 18.3333 1.66663 14.6025 1.66663 9.99996C1.66663 5.39746 5.39746 1.66663 9.99996 1.66663ZM9.99996 3.33329C8.23185 3.33329 6.53616 4.03567 5.28591 5.28591C4.03567 6.53616 3.33329 8.23185 3.33329 9.99996C3.33329 11.7681 4.03567 13.4638 5.28591 14.714C6.53616 15.9642 8.23185 16.6666 9.99996 16.6666C11.7681 16.6666 13.4638 15.9642 14.714 14.714C15.9642 13.4638 16.6666 11.7681 16.6666 9.99996C16.6666 8.23185 15.9642 6.53616 14.714 5.28591C13.4638 4.03567 11.7681 3.33329 9.99996 3.33329Z" fill="#EF0C1D"/>
<path d="M8.36254 7.04542C8.31611 6.79583 8.3252 6.53908 8.38918 6.29341C8.45316 6.04773 8.57045 5.81916 8.73271 5.62392C8.89498 5.42868 9.09825 5.27156 9.32808 5.16373C9.55792 5.0559 9.80867 5 10.0625 5C10.3164 5 10.5672 5.0559 10.797 5.16373C11.0268 5.27156 11.2301 5.42868 11.3924 5.62392C11.5546 5.81916 11.6719 6.04773 11.7359 6.29341C11.7999 6.53908 11.809 6.79583 11.7625 7.04542L11.0492 10.8454C11.0057 11.0753 10.8833 11.2827 10.7032 11.432C10.5231 11.5813 10.2965 11.6629 10.0625 11.6629C9.8286 11.6629 9.60201 11.5813 9.42187 11.432C9.24173 11.2827 9.11936 11.0753 9.07587 10.8454L8.36254 7.04542ZM11.3125 13.7479C11.3125 14.0794 11.1808 14.3974 10.9464 14.6318C10.712 14.8662 10.3941 14.9979 10.0625 14.9979C9.73102 14.9979 9.41308 14.8662 9.17866 14.6318C8.94424 14.3974 8.81254 14.0794 8.81254 13.7479C8.81254 13.4164 8.94424 13.0985 9.17866 12.864C9.41308 12.6296 9.73102 12.4979 10.0625 12.4979C10.3941 12.4979 10.712 12.6296 10.9464 12.864C11.1808 13.0985 11.3125 13.4164 11.3125 13.7479Z" fill="#EF0C1D"/>
</svg>
