<svg width="23" height="23" viewBox="0 0 23 23" fill="none" xmlns="http://www.w3.org/2000/svg">
<g clip-path="url(#clip0_3308_7623)">
<path d="M16.215 9.74621C16.4054 9.54184 16.5091 9.27152 16.5042 8.99221C16.4992 8.7129 16.3861 8.44641 16.1885 8.24888C15.991 8.05135 15.7245 7.9382 15.4452 7.93327C15.1659 7.92835 14.8956 8.03202 14.6912 8.22246L10.4218 12.4918L8.30871 10.3787C8.10434 10.1883 7.83402 10.0846 7.55471 10.0895C7.2754 10.0945 7.00891 10.2076 6.81138 10.4051C6.61385 10.6027 6.5007 10.8692 6.49577 11.1485C6.49085 11.4278 6.59452 11.6981 6.78496 11.9025L9.65996 14.7775C9.86211 14.9794 10.1361 15.0928 10.4218 15.0928C10.7075 15.0928 10.9816 14.9794 11.1837 14.7775L16.215 9.74621Z" fill="#25BA28"/>
<path d="M23 11.5C23 14.55 21.7884 17.4751 19.6317 19.6317C17.4751 21.7884 14.55 23 11.5 23C8.45001 23 5.52494 21.7884 3.36827 19.6317C1.2116 17.4751 0 14.55 0 11.5C0 8.45001 1.2116 5.52494 3.36827 3.36827C5.52494 1.2116 8.45001 0 11.5 0C14.55 0 17.4751 1.2116 19.6317 3.36827C21.7884 5.52494 23 8.45001 23 11.5ZM20.8438 11.5C20.8438 9.02188 19.8593 6.64526 18.107 4.89297C16.3547 3.14068 13.9781 2.15625 11.5 2.15625C9.02188 2.15625 6.64526 3.14068 4.89297 4.89297C3.14068 6.64526 2.15625 9.02188 2.15625 11.5C2.15625 13.9781 3.14068 16.3547 4.89297 18.107C6.64526 19.8593 9.02188 20.8438 11.5 20.8438C13.9781 20.8438 16.3547 19.8593 18.107 18.107C19.8593 16.3547 20.8438 13.9781 20.8438 11.5Z" fill="#25BA28"/>
</g>
<defs>
<clipPath id="clip0_3308_7623">
<rect width="23" height="23" fill="white"/>
</clipPath>
</defs>
</svg>
