<svg width="17" height="17" viewBox="0 0 17 17" fill="none" xmlns="http://www.w3.org/2000/svg">
<g clip-path="url(#clip0_3088_17174)">
<path d="M7.77048 5.85421C7.62208 5.95623 7.50312 6.09547 7.42552 6.25796C7.35968 6.37884 7.2495 6.46944 7.11818 6.51068C6.98687 6.55193 6.84467 6.5406 6.72154 6.47908C6.59842 6.41757 6.50397 6.31066 6.4581 6.18089C6.41223 6.05112 6.41852 5.90861 6.47564 5.78338C6.61731 5.49863 6.83902 5.1983 7.18185 4.97021C7.52752 4.73859 7.96456 4.604 8.50006 4.604C8.96614 4.604 9.46977 4.74213 9.86998 5.04246C10.0931 5.20556 10.274 5.4196 10.3977 5.66675C10.5214 5.9139 10.5843 6.18702 10.5811 6.46338C10.5811 7.19509 10.2178 7.68171 9.85368 8.03234C9.7191 8.16196 9.57106 8.28592 9.44356 8.39217L9.33943 8.4793C9.22965 8.56805 9.12666 8.66489 9.03131 8.769V9.73942C9.03131 9.88032 8.97534 10.0154 8.87571 10.1151C8.77608 10.2147 8.64096 10.2707 8.50006 10.2707C8.35916 10.2707 8.22404 10.2147 8.12441 10.1151C8.02478 10.0154 7.96881 9.88032 7.96881 9.73942V8.69605C7.96881 8.52817 8.01627 8.33905 8.14377 8.17471C8.2996 7.97638 8.48802 7.8085 8.65235 7.66896L8.78198 7.56059L8.78268 7.55988C8.90452 7.45859 9.01218 7.36863 9.1156 7.26805C9.37627 7.01659 9.51864 6.78921 9.51864 6.46338C9.52196 6.35196 9.49755 6.24146 9.4476 6.14181C9.39765 6.04216 9.32373 5.95648 9.23248 5.89246C9.04264 5.75009 8.77206 5.6665 8.50006 5.6665C8.15014 5.6665 7.92348 5.75221 7.77048 5.85421ZM9.20839 12.0415C9.20839 12.2294 9.13376 12.4095 9.00093 12.5424C8.86809 12.6752 8.68792 12.7498 8.50006 12.7498C8.3122 12.7498 8.13203 12.6752 7.99919 12.5424C7.86635 12.4095 7.79173 12.2294 7.79173 12.0415C7.79173 11.8536 7.86635 11.6735 7.99919 11.5406C8.13203 11.4078 8.3122 11.3332 8.50006 11.3332C8.68792 11.3332 8.86809 11.4078 9.00093 11.5406C9.13376 11.6735 9.20839 11.8536 9.20839 12.0415Z" fill="#242424"/>
<path d="M8.50004 0.708496C12.8032 0.708496 16.2917 4.19704 16.2917 8.50016C16.2917 12.8033 12.8032 16.2918 8.50004 16.2918C4.19692 16.2918 0.708374 12.8033 0.708374 8.50016C0.708374 4.19704 4.19692 0.708496 8.50004 0.708496ZM1.77087 8.50016C1.77087 10.2848 2.47984 11.9964 3.7418 13.2584C5.00376 14.5204 6.71535 15.2293 8.50004 15.2293C10.2847 15.2293 11.9963 14.5204 13.2583 13.2584C14.5202 11.9964 15.2292 10.2848 15.2292 8.50016C15.2292 6.71548 14.5202 5.00389 13.2583 3.74192C11.9963 2.47996 10.2847 1.771 8.50004 1.771C6.71535 1.771 5.00376 2.47996 3.7418 3.74192C2.47984 5.00389 1.77087 6.71548 1.77087 8.50016Z" fill="#242424"/>
</g>
<defs>
<clipPath id="clip0_3088_17174">
<rect width="17" height="17" fill="white"/>
</clipPath>
</defs>
</svg>
