<svg width="17" height="17" viewBox="0 0 17 17" fill="none" xmlns="http://www.w3.org/2000/svg">
<path d="M8.5 5.66667V11.3333M2.125 8.5C2.125 9.33718 2.28989 10.1662 2.61027 10.9396C2.93064 11.7131 3.40022 12.4158 3.99219 13.0078C4.58417 13.5998 5.28694 14.0694 6.06039 14.3897C6.83384 14.7101 7.66282 14.875 8.5 14.875C9.33718 14.875 10.1662 14.7101 10.9396 14.3897C11.7131 14.0694 12.4158 13.5998 13.0078 13.0078C13.5998 12.4158 14.0694 11.7131 14.3897 10.9396C14.7101 10.1662 14.875 9.33718 14.875 8.5C14.875 7.66282 14.7101 6.83384 14.3897 6.06039C14.0694 5.28694 13.5998 4.58417 13.0078 3.99219C12.4158 3.40022 11.7131 2.93064 10.9396 2.61027C10.1662 2.28989 9.33718 2.125 8.5 2.125C7.66282 2.125 6.83384 2.28989 6.06039 2.61027C5.28694 2.93064 4.58417 3.40022 3.99219 3.99219C3.40022 4.58417 2.93064 5.28694 2.61027 6.06039C2.28989 6.83384 2.125 7.66282 2.125 8.5Z" stroke="#242424" stroke-width="1.41667" stroke-linecap="round" stroke-linejoin="round"/>
</svg>
