<svg width="19" height="20" viewBox="0 0 19 20" fill="none" xmlns="http://www.w3.org/2000/svg">
<path d="M18.6572 5.72978C18.4079 5.19624 18.0037 4.75018 17.4972 4.44978L11.0272 0.449784C10.5526 0.155769 10.0054 0 9.44716 0C8.88891 0 8.34172 0.155769 7.86716 0.449784L1.39716 4.44978C0.906701 4.76215 0.517588 5.21033 0.277165 5.73978C0.0274147 6.26924 -0.0562527 6.86188 0.0371647 7.43979L1.71716 17.4398C1.8249 18.1371 2.17983 18.7725 2.71716 19.2298C3.25024 19.6763 3.92185 19.9237 4.61716 19.9298H14.2372C14.9462 19.9331 15.6335 19.6851 16.1772 19.2298C16.7173 18.7748 17.0729 18.1383 17.1772 17.4398L18.8572 7.43979C18.959 6.86249 18.8895 6.268 18.6572 5.72978ZM12.7972 15.4298H6.10716C5.84195 15.4298 5.58759 15.3244 5.40006 15.1369C5.21252 14.9494 5.10716 14.695 5.10716 14.4298C5.10716 14.1646 5.21252 13.9102 5.40006 13.7227C5.58759 13.5351 5.84195 13.4298 6.10716 13.4298H12.7972C13.0624 13.4298 13.3167 13.5351 13.5043 13.7227C13.6918 13.9102 13.7972 14.1646 13.7972 14.4298C13.7972 14.695 13.6918 14.9494 13.5043 15.1369C13.3167 15.3244 13.0624 15.4298 12.7972 15.4298Z" fill="#86827F"/>
</svg>
