<svg width="20" height="19" viewBox="0 0 20 19" fill="none" xmlns="http://www.w3.org/2000/svg">
<path fill-rule="evenodd" clip-rule="evenodd" d="M5.55556 4.22222C5.55556 3.10242 6.02381 2.02848 6.8573 1.23666C7.6908 0.44484 8.82126 0 10 0C11.1787 0 12.3092 0.44484 13.1427 1.23666C13.9762 2.02848 14.4444 3.10242 14.4444 4.22222C14.4444 5.34203 13.9762 6.41596 13.1427 7.20778C12.3092 7.9996 11.1787 8.44444 10 8.44444C8.82126 8.44444 7.6908 7.9996 6.8573 7.20778C6.02381 6.41596 5.55556 5.34203 5.55556 4.22222ZM5.55556 10.5556C4.08213 10.5556 2.66905 11.1116 1.62718 12.1014C0.585316 13.0912 0 14.4336 0 15.8333C0 16.6732 0.35119 17.4786 0.976311 18.0725C1.60143 18.6664 2.44928 19 3.33333 19H16.6667C17.5507 19 18.3986 18.6664 19.0237 18.0725C19.6488 17.4786 20 16.6732 20 15.8333C20 14.4336 19.4147 13.0912 18.3728 12.1014C17.3309 11.1116 15.9179 10.5556 14.4444 10.5556H5.55556Z" fill="#9D00FF"/>
</svg>
