<svg width="20" height="20" viewBox="0 0 20 20" fill="none" xmlns="http://www.w3.org/2000/svg">
<path d="M11.409 0.274771C10.5054 -0.0915902 9.49461 -0.0915902 8.591 0.274771L6.401 1.16277L15.993 4.89277L19.367 3.58977C19.2282 3.47566 19.0732 3.38297 18.907 3.31477L11.409 0.274771ZM20 4.95277L10.75 8.52677V19.4498C10.974 19.4044 11.1937 19.3381 11.409 19.2508L18.907 16.2108C19.23 16.0799 19.5065 15.8557 19.7013 15.5667C19.896 15.2778 20 14.9372 20 14.5888V4.95277ZM9.25 19.4498V8.52677L0 4.95277V14.5898C0.000197019 14.9381 0.104314 15.2784 0.299027 15.5671C0.49374 15.8559 0.770191 16.08 1.093 16.2108L8.591 19.2508C8.80633 19.3374 9.026 19.4031 9.25 19.4498ZM0.633 3.58977L10 7.20877L13.917 5.69477L4.374 1.98477L1.093 3.31477C0.922333 3.3841 0.769 3.47577 0.633 3.58977Z" fill="#9D00FF"/>
</svg>
