<svg width="20" height="20" viewBox="0 0 20 20" fill="none" xmlns="http://www.w3.org/2000/svg">
<path d="M19.8667 17.57L19.64 17.37C18.9971 16.7969 18.4343 16.1399 17.9667 15.4167C17.4556 14.4186 17.1496 13.3282 17.0667 12.21V8.91667C17.0711 7.16041 16.434 5.46298 15.2752 4.14332C14.1163 2.82365 12.5154 1.97257 10.7733 1.75V0.89C10.7733 0.653957 10.6796 0.427582 10.5127 0.260675C10.3458 0.0937677 10.1194 0 9.88333 0C9.64729 0 9.42092 0.0937677 9.25401 0.260675C9.0871 0.427582 8.99333 0.653957 8.99333 0.89V1.76333C7.26684 2.00195 5.68531 2.85817 4.54169 4.1734C3.39806 5.48864 2.76982 7.17376 2.77333 8.91667V12.21C2.69037 13.3282 2.38436 14.4186 1.87333 15.4167C1.41392 16.1382 0.86013 16.7952 0.226667 17.37L0 17.57V19.45H19.8667V17.57Z" fill="#86827F"/>
</svg>
